HIERARCHY
ROOT root
{
	OFFSET	0	13.1	24.9
	CHANNELS 6  Xposition Yposition Zposition Xrotation Yrotation Zrotation
	JOINT spine_1
	{
		OFFSET	0	9.99999	0
		CHANNELS 3  Xrotation Yrotation Zrotation
		JOINT spine_2
		{
			OFFSET	0	112	-10
			CHANNELS 3  Xrotation Yrotation Zrotation
			JOINT spine_3
			{
				OFFSET	0	206.5	19.3
				CHANNELS 3  Xrotation Yrotation Zrotation
				JOINT spine_4
				{
					OFFSET	0	110.4	14.6
					CHANNELS 3  Xrotation Yrotation Zrotation
					JOINT neck_1
					{
						OFFSET	0	71.8	-50.3
						CHANNELS 3  Xrotation Yrotation Zrotation
						JOINT neck_2
						{
							OFFSET	0	86.2	-25.8
							CHANNELS 3  Xrotation Yrotation Zrotation
							JOINT head_ee
							{
								OFFSET	0	179.8	-8.7
								CHANNELS 3  Xrotation Yrotation Zrotation
								End Site
								{
									OFFSET	1	0	0
								}
							}
						}
					}
					JOINT left_clavicle
					{
						OFFSET	-43.2	22.4	-70.8
						CHANNELS 3  Xrotation Yrotation Zrotation
						JOINT left_shoulder
						{
							OFFSET	-93.9	-5.79999	48.7
							CHANNELS 3  Xrotation Yrotation Zrotation
							JOINT left_elbow
							{
								OFFSET	-291.4	-30.8	15.2
								CHANNELS 3  Xrotation Yrotation Zrotation
								JOINT left_lowarm_twist
								{
									OFFSET	-110.7	-3.89999	13.6
									CHANNELS 3  Xrotation Yrotation Zrotation
									JOINT left_hand
									{
										OFFSET	-110.7	-3.89999	13.6
										CHANNELS 3  Xrotation Yrotation Zrotation
										JOINT left_ee
										{
											OFFSET	-80.8	-5.10001	12.1
											CHANNELS 3  Xrotation Yrotation Zrotation
											End Site
											{
												OFFSET	1	0	0
											}
										}
									}
								}
							}
						}
					}
					JOINT right_clavicle
					{
						OFFSET	43.2	22.4	-70.8
						CHANNELS 3  Xrotation Yrotation Zrotation
						JOINT right_shoulder
						{
							OFFSET	93.9	-5.79999	48.7
							CHANNELS 3  Xrotation Yrotation Zrotation
							JOINT right_elbow
							{
								OFFSET	291.4	-30.8	15.2
								CHANNELS 3  Xrotation Yrotation Zrotation
								JOINT right_lowarm_twist
								{
									OFFSET	110.7	-3.89999	13.6
									CHANNELS 3  Xrotation Yrotation Zrotation
									JOINT right_hand
									{
										OFFSET	110.7	-3.89999	13.6
										CHANNELS 3  Xrotation Yrotation Zrotation
										JOINT right_ee
										{
											OFFSET	80.8	-5.10001	12.1
											CHANNELS 3  Xrotation Yrotation Zrotation
											End Site
											{
												OFFSET	1	0	0
											}
										}
									}
								}
							}
						}
					}
				}
			}
		}
	}
	JOINT left_hip
	{
		OFFSET	-82.8	-127.5	0.300001
		CHANNELS 3  Xrotation Yrotation Zrotation
		JOINT left_knee
		{
			OFFSET	-28.2	-396.7	2.2
			CHANNELS 3  Xrotation Yrotation Zrotation
			JOINT left_ankle
			{
				OFFSET	-11.7	-411.3	35.4
				CHANNELS 3  Xrotation Yrotation Zrotation
				JOINT left_toes
				{
					OFFSET	0	-60	-88.6
					CHANNELS 3  Xrotation Yrotation Zrotation
					JOINT left_foot_ee
					{
						OFFSET	-22.5	-16.5	-42.2
						CHANNELS 3  Xrotation Yrotation Zrotation
						End Site
						{
							OFFSET	1	0	0
						}
					}
				}
			}
		}
	}
	JOINT right_hip
	{
		OFFSET	82.8	-127.5	0.300001
		CHANNELS 3  Xrotation Yrotation Zrotation
		JOINT right_knee
		{
			OFFSET	28.2	-396.7	2.2
			CHANNELS 3  Xrotation Yrotation Zrotation
			JOINT right_ankle
			{
				OFFSET	11.7	-411.3	35.4
				CHANNELS 3  Xrotation Yrotation Zrotation
				JOINT right_toes
				{
					OFFSET	0	-60	-88.6
					CHANNELS 3  Xrotation Yrotation Zrotation
					JOINT right_foot_ee
					{
						OFFSET	22.5	-16.5	-42.2
						CHANNELS 3  Xrotation Yrotation Zrotation
						End Site
						{
							OFFSET	1	0	0
						}
					}
				}
			}
		}
	}
}
MOTION
Frames: 8
Frame Time: 0.02
1054.55 710.771 -1367.07 -68.15 77.4608 66.7785 4.57384 -0.0175937 0.827354 4.57421 -0.0702029 0.824558 4.57293 -0.178086 0.808154 4.57202 -0.0482227 0.826135 -13.7274 6.69556 -4.09687 -13.8505 15.277 -1.80119 -0.0 0.0 -0.0 -1.02063 21.7811 1.08384 -26.321 -62.3131 50.1966 0.789099 -21.3503 0.148749 -68.3973 -6.34167 5.285 0.860326 -3.11314 4.47116 -0.0 0.0 -0.0 7.1651 -24.768 -12.5463 -51.1607 55.9113 -41.4813 0.730888 19.9033 -0.128241 53.2773 1.21329 6.45444 -3.66799 -25.397 10.6184 0.0 0.0 0.0 12.6389 18.6209 -6.1492 -0.565147 0.022858 0.0837157 21.8892 -17.6936 -3.25765 1.10432 -0.0 -0.0 -0.0 0.0 -0.0 12.3355 -15.5346 -3.89942 -11.684 -0.302038 -1.76455 37.137 29.0587 5.56505 -26.5187 0.0 0.0 0.0 0.0 0.0 
1055.37 709.989 -1364.81 -67.9331 77.4348 66.6204 4.54163 0.00618007 0.717252 4.54192 -0.0394719 0.716192 4.54122 -0.133749 0.704699 4.54053 -0.0207792 0.716977 -15.6449 6.15948 -6.25407 -15.7632 15.4363 -3.76836 -0.0 0.0 -0.0 -0.986918 22.1816 1.18719 -28.8911 -62.5848 48.5647 0.769234 -20.8596 0.141597 -68.5352 -6.35924 5.28671 0.740716 -3.5412 3.48633 -0.0 0.0 -0.0 7.26311 -24.2539 -12.739 -52.9339 57.5477 -39.0292 0.716904 19.5517 -0.123521 52.4019 1.14608 6.36468 -3.62326 -26.5858 9.64368 0.0 0.0 0.0 13.9325 18.9235 -6.31581 -2.93591 0.109699 0.437165 23.0189 -16.6671 -3.377 1.18363 -0.0 -0.0 -0.0 0.0 -0.0 11.8488 -15.4273 -4.02605 -10.2622 -0.284614 -1.54711 37.3242 29.1229 5.58867 -27.3999 0.0 0.0 0.0 0.0 0.0 
1052.93 707.609 -1365.3 -71.402 78.1894 70.2159 4.56834 0.0207902 0.710047 4.56862 -0.0244329 0.70993 4.56812 -0.117684 0.700535 4.56743 -0.00557388 0.710329 -15.766 5.86743 -6.25726 -15.8706 14.8699 -3.85936 -0.0 0.0 -0.0 -1.17983 21.9295 0.879613 -29.5784 -62.4292 48.1315 0.837668 -22.5361 0.1669 -68.2083 -6.3176 5.28258 0.679462 -2.92167 3.33238 -0.0 0.0 -0.0 7.40783 -24.3707 -12.9307 -52.0963 57.8936 -38.7598 0.684408 18.7285 -0.112866 51.3035 1.0637 6.25065 -3.55857 -25.079 10.1828 0.0 0.0 0.0 14.7849 19.2327 -6.37413 -4.13209 0.147939 0.616757 24.2551 -14.746 -3.48468 1.48208 -0.0 -0.0 -0.0 0.0 -0.0 11.7838 -14.8689 -3.79469 -12.4928 -0.309541 -1.88842 37.4301 28.43 5.55451 -26.7085 0.0 0.0 0.0 0.0 0.0 
1048.37 710.432 -1367.15 -70.1976 79.5539 68.6778 4.09722 0.0206829 0.68015 4.09747 -0.0226377 0.680088 4.09705 -0.11749 0.670245 4.09642 -0.0101654 0.680388 -16.9004 6.32639 -4.95225 -17.0791 14.9218 -2.31385 -0.0 0.0 -0.0 -1.3485 21.8129 0.623788 -29.3291 -61.5481 48.7253 0.888688 -23.7603 0.186958 -68.2475 -6.32259 5.28309 0.2264 -0.624565 1.25088 -0.0 0.0 -0.0 7.68697 -24.1661 -13.3505 -51.3924 57.7299 -38.687 0.6887 18.8377 -0.114248 49.8371 0.95717 6.09601 -3.15622 -23.7927 8.61334 0.0 0.0 0.0 15.5891 19.0956 -6.89457 -8.37464 0.253153 1.25918 27.5674 -13.2399 -3.84488 1.77907 -0.0 -0.0 -0.0 0.0 -0.0 11.8765 -14.5915 -2.8594 -15.7819 -0.322019 -2.39285 36.8788 27.8494 5.46127 -27.2487 0.0 0.0 0.0 0.0 0.0 
1043.14 710.252 -1366.86 -63.756 79.7041 61.954 3.89684 0.243329 0.712486 3.8971 0.1975 0.726525 3.89947 0.0914349 0.747317 3.89875 0.208309 0.7235 -16.9108 6.84042 -4.30411 -17.1283 15.5435 -1.50856 -0.0 0.0 -0.0 -1.36602 21.615 0.569304 -29.2503 -60.3034 49.5645 0.899211 -24.0099 0.191219 -68.3031 -6.32967 5.2838 -0.166981 1.81025 -0.348184 -0.0 0.0 -0.0 7.93681 -24.2073 -13.7018 -50.4971 57.6927 -38.7142 0.68093 18.64 -0.111752 48.7749 0.882508 5.98235 -2.85607 -22.666 7.49468 0.0 0.0 0.0 16.5381 18.7822 -6.76984 -12.4128 0.308877 1.87618 29.1284 -10.2384 -3.95552 1.63237 -0.0 -0.0 -0.0 0.0 -0.0 11.7123 -15.0875 -2.2817 -17.9381 -0.314482 -2.72357 37.4629 27.5187 5.50083 -27.6187 0.0 0.0 0.0 0.0 0.0 
1042.03 708.011 -1370.2 -58.41 79.1134 56.3411 3.85932 0.470057 0.746635 3.85953 0.421595 0.775031 3.86513 0.305803 0.827584 3.86443 0.432663 0.768907 -17.1315 6.93212 -3.07982 -17.362 15.0272 -0.297072 -0.0 0.0 -0.0 -1.71303 21.5544 0.0656955 -31.2323 -60.1752 48.1695 0.926932 -24.663 0.202642 -68.5664 -6.36322 5.28709 -0.723502 4.15884 -3.02568 -0.0 0.0 -0.0 8.17826 -23.8016 -14.1018 -48.5416 58.2048 -39.1258 0.681456 18.6534 -0.11192 47.861 0.819968 5.88347 -2.3747 -19.057 6.54111 0.0 0.0 0.0 17.9813 13.7493 -7.39655 -18.0189 0.313957 2.73596 31.0063 -6.72561 -4.09509 3.04666 -0.0 -0.0 -0.0 0.0 -0.0 11.3435 -13.8051 -1.9829 -18.1045 -0.313383 -2.74907 37.8081 27.5335 5.53661 -27.2083 0.0 0.0 0.0 0.0 0.0 
1040.07 706.624 -1372.62 -54.1907 79.6417 51.861 3.5619 0.621885 0.901438 3.56218 0.563267 0.93918 3.57132 0.417249 1.01253 3.57035 0.571916 0.933938 -17.0594 7.43135 -2.7636 -17.3212 15.8111 0.181359 -0.0 0.0 -0.0 -1.99561 21.6231 -0.325796 -31.5537 -59.5712 47.8137 0.898133 -23.9844 0.19078 -68.6521 -6.37414 5.28813 -1.09711 6.04624 -4.65144 -0.0 0.0 -0.0 8.35551 -22.7748 -14.4987 -46.7169 58.744 -40.48 0.681599 18.657 -0.111966 47.5745 0.800693 5.85227 -2.03293 -19.0399 4.49297 0.0 0.0 0.0 19.0498 10.4454 -7.67144 -23.0452 0.247059 3.50406 32.1818 -2.54694 -4.1616 3.9025 -0.0 -0.0 -0.0 0.0 -0.0 10.8381 -12.3167 -1.57594 -19.5786 -0.300414 -2.97488 38.083 28.0158 5.59428 -25.7645 0.0 0.0 0.0 0.0 0.0 
1039.8 705.932 -1374.8 -49.1835 79.4402 46.6855 3.49217 0.776229 1.06935 3.49253 0.706615 1.11657 3.5062 0.531275 1.20986 3.50488 0.715671 1.11079 -16.5747 7.16618 -2.02839 -16.8005 14.8976 0.701 -0.0 0.0 -0.0 -2.27546 21.7389 -0.704312 -32.0047 -58.8225 47.5238 0.928195 -24.6926 0.20317 -68.7117 -6.38173 5.28884 -1.49947 7.7959 -6.48917 -0.0 0.0 -0.0 8.52997 -22.9795 -14.7288 -45.4266 59.3577 -40.7116 0.686903 18.792 -0.113668 47.2045 0.776028 5.81184 -1.86777 -16.367 4.78745 0.0 0.0 0.0 19.8758 10.2805 -7.92545 -25.2038 0.197697 3.83161 32.7721 -0.731338 -4.20444 4.58393 -0.0 -0.0 -0.0 0.0 -0.0 10.3906 -12.8152 -1.42218 -19.7391 -0.298652 -2.99944 38.2348 27.796 5.59562 -27.3009 0.0 0.0 0.0 0.0 0.0 
